PathFileType	4	(X/Y/Z)	C:\Users\WrightLab\Desktop\Jo\P5V32.trc
DataRate	CameraRate	NumFrames	NumMarkers	Units	OrigDataRate	OrigDataStartFrame	OrigNumFrames
100.00	100.00	      14	19	mm	100.00	276	      1100
Frame#	Time	Headset_Front			Headset_Back			Headset_Left			Headset_Right			Left_Shoulder			Right_Shoulder			Sternum			C7			Left Elbow			Right Elbow			Left Wrist			Right Wrist			Left ASIS			Right ASIS			S2			Left Knee			Right Knee			Left Ankle			Right Ankle			
		X1	Y1	Z1	X2	Y2	Z2	X3	Y3	Z3	X4	Y4	Z4	X5	Y5	Z5	X6	Y6	Z6	X7	Y7	Z7	X8	Y8	Z8	X9	Y9	Z9	X10	Y10	Z10	X11	Y11	Z11	X12	Y12	Z12	X13	Y13	Z13	X14	Y14	Z14	X15	Y15	Z15	X16	Y16	Z16	X17	Y17	Z17	X18	Y18	Z18	X19	Y19	Z19	

276	2.750										-227.11865	1556.61023	-961.89948	-112.43344	1496.41809	-1229.81470				227.56448	1243.27429	-1020.32477				125.36845	1257.57434	-995.48145	-358.02603	1229.39343	-938.26776				-271.17004	1215.84473	-708.20770	68.27509	906.18030	-1045.79504	-200.95380	926.87103	-997.29224				34.90397	471.13025	-1103.57043	-270.36981	498.10150	-970.51233				-305.06296	87.72144	-983.77881	
277	2.760										-231.01967	1555.99524	-958.04608	-114.82722	1495.94885	-1225.98035				225.84285	1240.93115	-1016.54767				122.17941	1257.71936	-990.31299	-363.37494	1228.19958	-936.77264				-278.94647	1215.10657	-705.52679	64.97585	905.86523	-1040.55383	-204.22646	926.54852	-992.63354				32.74428	470.78537	-1101.82263	-272.56155	497.06223	-970.08966				-305.33121	86.50390	-980.49756	
278	2.770										-234.92638	1555.45630	-954.84631	-117.56870	1495.26013	-1222.16650				221.02638	1240.61011	-1012.71143				117.60010	1257.01575	-984.33783	-368.38882	1227.38110	-934.56744				-286.88483	1213.94812	-702.33978	62.86660	905.06836	-1035.36011	-207.86009	925.69153	-988.54706				30.38021	470.47610	-1099.83984	-274.94672	496.17087	-967.58600				-305.40146	83.69532	-979.46899	
279	2.780										-238.87234	1554.76453	-951.05548	-120.30183	1494.44031	-1217.97815				218.17227	1238.72583	-1009.10394				114.39088	1256.42065	-978.94238	-373.48102	1226.40222	-932.52057				-292.80090	1213.60681	-701.58154	59.89497	904.89575	-1029.89795	-211.10083	924.68463	-984.12744				27.76179	470.27167	-1096.52966	-277.82275	495.45343	-966.50940				-306.63098	82.77053	-978.14917	
280	2.790										-242.88466	1554.08826	-947.28510	-123.09135	1493.79907	-1213.83301				215.34013	1236.89282	-1005.62982				110.28454	1256.00220	-973.76367	-378.04065	1225.59985	-930.57623				-299.15012	1213.15259	-698.14709	56.84337	904.74854	-1025.08887	-215.68071	924.20221	-978.87506	-97.90102	943.78119	-1281.73926	26.61435	469.94101	-1094.37659	-281.40039	494.70651	-962.31866				-305.76581	82.20120	-978.70563	
281	2.800										-247.06213	1553.27026	-944.17468	-126.09029	1492.59387	-1209.65405				210.69998	1236.92627	-1001.54816				106.32176	1256.09741	-968.58661	-383.45135	1224.68201	-927.79633				-305.75836	1211.87769	-694.93341	53.73730	903.97491	-1019.58490	-218.98672	923.55255	-974.69806	-100.46378	943.16089	-1276.39087	24.87388	469.55850	-1091.49036	-282.87051	492.38614	-960.24957				-305.28363	81.50092	-978.59540	
282	2.810										-251.15730	1552.68213	-940.09979	-129.16588	1492.53125	-1206.12146				208.77547	1234.10803	-997.35718				101.53534	1255.19739	-962.94348	-388.01077	1224.13159	-925.58264				-312.30017	1211.07312	-691.56189	49.34620	903.43597	-1013.72998	-221.96764	923.56812	-970.75507	-103.71369	942.81317	-1272.42358	22.45896	468.26944	-1087.83606	-284.95911	491.51138	-958.31067				-305.03256	81.53282	-978.47601	
283	2.820										-255.47751	1552.07092	-936.55859	-132.21368	1492.01636	-1201.88794				204.16154	1234.19983	-993.54071				97.34304	1254.68518	-957.45154	-393.41678	1223.00659	-922.45569				-318.64587	1210.35229	-689.30042	46.27753	903.83649	-1008.29053	-226.77634	922.90363	-965.91937	-106.73730	941.84674	-1266.99927	20.54531	467.83786	-1083.73206	-287.05911	490.31219	-956.99377				-305.18777	81.64240	-977.17377	
284	2.830										-259.74240	1551.74060	-932.54016	-135.36166	1491.66602	-1198.03223				199.25076	1233.68433	-990.26837				93.52190	1254.65918	-952.62970	-397.57300	1222.74719	-920.24457				-324.81982	1209.68079	-686.42352	42.95259	903.67804	-1002.07782	-229.68312	922.57092	-961.20709	-109.79017	940.54767	-1261.25415	18.00541	467.76251	-1079.51233	-288.89069	487.84247	-954.06671				-305.20291	82.02776	-976.01465	
285	2.840										-263.96216	1551.65027	-928.67279	-138.43248	1491.77625	-1193.58557				195.80690	1232.29333	-986.04236				89.19497	1254.57654	-947.23517	-402.54739	1222.88879	-918.32233				-331.36417	1209.38269	-682.73456	38.79758	903.17584	-995.08490	-234.37453	922.57825	-956.71240	-112.92769	941.21436	-1257.30249	15.80392	467.49918	-1074.69226	-290.87073	488.39847	-951.84167				-305.36829	81.83540	-975.81964	
286	2.850										-268.22327	1551.52759	-924.83844	-141.47026	1492.00464	-1189.45251	-112.90822	1293.39502	-979.30579	192.98073	1231.48560	-981.96973				84.99660	1254.20276	-941.38007	-406.19211	1221.90210	-915.00641				-336.59802	1208.17786	-679.41028	34.95546	903.52679	-989.32776	-239.12997	923.09149	-951.15967	-115.83669	940.84412	-1251.27747	11.79248	466.44009	-1067.92102	-293.69107	487.99323	-949.55420				-304.86935	81.11790	-975.70245	
287	2.860										-272.52002	1551.49634	-921.24170	-144.45924	1492.19543	-1184.95337	-117.13968	1292.90723	-975.62378	187.56989	1232.74231	-978.56702				80.87713	1254.35486	-935.74487	-410.42282	1221.49451	-912.12402				-342.52301	1207.70215	-676.53094	29.95434	903.44684	-983.49640	-242.72452	923.23694	-945.94458	-119.03160	941.34125	-1246.97266	8.97886	468.12433	-1063.15479	-297.00674	488.10449	-947.08795				-304.98593	80.47125	-975.40942	
288	2.870										-276.64243	1551.38257	-917.40515	-147.53529	1492.21155	-1180.63672	-120.66550	1292.32788	-971.22498	183.81210	1232.05627	-973.76221				75.65785	1254.39905	-930.72595	-414.82748	1221.58862	-909.60883				-347.28571	1207.86536	-673.89587	26.71788	904.68488	-976.69098	-246.33121	923.17651	-941.60321	-121.93887	941.36346	-1241.22217	4.37842	467.75323	-1058.30164	-298.80624	488.43701	-943.80170				-304.99997	80.43222	-975.40448	
289	2.880										-280.82806	1551.60815	-914.28278	-150.54562	1492.29114	-1176.42358				180.06635	1232.45801	-969.12109				71.67152	1254.29919	-925.56750	-419.07159	1221.87524	-907.42633				-352.60834	1207.15259	-671.23907	22.81186	904.65179	-969.49854	-251.38399	924.79089	-937.07568	-125.21323	942.00635	-1237.01770	-0.58086	466.97125	-1052.70642	-302.33066	488.69699	-940.81757				-305.39377	79.76823	-975.81812	
